{"title":"White House Down 2013 DVDScr XviD [cropped] AC3 5.1 titler","uid":8780777,"size":1709652664,"categoryP":"video","categoryS":"movies","magnet":"?xt=urn:btih:35bb5edf9f562afa2824685573512372de2d87b3&amp;dn=White+House+Down+2013+DVDScr+XviD+%5Bcropped%5D+AC3+5.1+titler&amp;tr=udp%3A%2F%2Ftracker.openbittorrent.com%3A80&amp;tr=udp%3A%2F%2Fopen.demonii.com%3A1337&amp;tr=udp%3A%2F%2Ftracker.coppersurfer.tk%3A6969&amp;tr=udp%3A%2F%2Fexodus.desync.com%3A6969","seeders":0,"leechers":0,"uploader":"movieZ.freak","files":4,"time":1375661069,"description":"SOURCE: White House Down 2013 R6 DVDScr XviD AC3-SmY\n\n &lt;a href=&quot;\nhttp://www.imdb.com/title/tt2334879/&quot; rel=&quot;nofollow&quot; target=&quot;_NEW&quot;&gt;\nhttp://www.imdb.com/title/tt2334879/&lt;/a&gt;\n\n &lt;a href=&quot;\nhttp://www.rottentomatoes.com/m/white_house_down/&quot; rel=&quot;nofollow&quot; target=&quot;_NEW&quot;&gt;\nhttp://www.rottentomatoes.com/m/white_house_down/&lt;/a&gt;\n\n\n\n- SAMPLE: Yes\n\n- SUBTITLE: None\n\n- LANGUAGE: English\n\n\n\nSCREENSHOTS:\n------------------- &lt;a href=&quot;\nhttp://someimage.com/miGV&quot; rel=&quot;nofollow&quot; target=&quot;_NEW&quot;&gt;\nhttp://someimage.com/miGV&lt;/a&gt;\n\n\nNOTE:\n------------\nNo chinese hardcoded subtitles, AC3 5.1 audio.\nCheck the sample, take it or leave it.\n\n\nDIRECTOR: Roland Emmerich\n\n\nCAST:\n-----------\nChanning Tatum, Jamie Foxx, Maggie Gyllenhaal, Jason Clarke, Richard Jenkins, Joey King, James Woods, Matt Craven\n\n\nPLOT:\n-----------\nCapitol Policeman John Cale has just been denied his dream job with the Secret Service of protecting President James Sawyer. Not wanting to let down his little girl with the news, he takes her on a tour of the White House, when the complex is overtaken by a heavily armed paramilitary group. Now, with the nation's government falling into chaos and time running out, it's up to Cale to save the president, his daughter, and the country. \n\n\nGeneral\n----------------\nFormat : AVI\nFormat/Info : Audio Video Interleave\nFile size : 1.56 GiB\nDuration : 2h 4mn\nOverall bit rate : 1791 Kbps\nWriting application : VirtualDubMod 1.5.4.1\nWriting library : VirtualDubMod build 2178\n\n\nVideo\n------------\nFormat : MPEG-4 Visual\nFormat profile : Advanced Simple@L5\nFormat settings, BVOP : 1\nFormat settings, QPel : No\nFormat settings, GMC : No warppoints\nFormat settings, Matrix : Custom\nCodec ID : XVID\nCodec ID/Hint : XviD\nDuration : 2h 4mn\nBit rate : 1336 Kbps\nWidth : 672 pixels\nHeight : 288 pixels\nDisplay aspect ratio : 2.35:1\nFrame rate : 29.970 fps\nColor space : YUV\nChroma subsampling : 4:2:0\nBit depth : 8 bits\nScan type : Progressive\nCompression mode : Lossy\nBits/(Pixel*Frame) : 0.230\nStream size : 1.17 GiB (75%)\nWriting library : XviD 64\n\n\nAudio\n--------------\nFormat : AC-3\nFormat/Info : Audio Coding 3\nMode extension : CM (complete main)\nFormat settings, Endianness : Big\nCodec ID : 2000\nDuration : 2h 4mn\nBit rate mode : Constant\nBit rate : 448 Kbps\nChannel(s) : 6 channels\nChannel positions : Front: L C R, Side: L R, LFE\nSampling rate : 48.0 KHz\nBit depth : 16 bits\nCompression mode : Lossy\nStream size : 400 MiB (25%)\nAlignment : Split accross interleaves\nInterleave, duration : 96 ms (2.88 video frames)\nInterleave, preload duration : 96 ms\nLanguage : English","torrent":{"xt":"urn:btih:35bb5edf9f562afa2824685573512372de2d87b3","amp;dn":"White+House+Down+2013+DVDScr+XviD+%5Bcropped%5D+AC3+5.1+titler","amp;tr":["udp%3A%2F%2Ftracker.openbittorrent.com%3A80","udp%3A%2F%2Fopen.demonii.com%3A1337","udp%3A%2F%2Ftracker.coppersurfer.tk%3A6969","udp%3A%2F%2Fexodus.desync.com%3A6969"],"infoHash":"35bb5edf9f562afa2824685573512372de2d87b3","infoHashBuffer":{"type":"Buffer","data":[53,187,94,223,159,86,42,250,40,36,104,85,115,81,35,114,222,45,135,179]},"announce":[],"urlList":[]}}